<svg xmlns="http://www.w3.org/2000/svg" xmlns:xlink="http://www.w3.org/1999/xlink" xmlns:lucid="lucid" width="962.5" height="689"><g transform="translate(1981.5 2620.5)" lucid:page-tab-id="0_0"><path d="M-1820-2570a10 10 0 0 1 10-10h259.5a10 10 0 0 1 10 10v212a10 10 0 0 1-10 10H-1810a10 10 0 0 1-10-10z" fill="#fff"/><path d="M-1820-2570a10 10 0 0 1 10-10h259.5a10 10 0 0 1 10 10v30H-1820z" fill="#ccc"/><path d="M-1820-2540h279.5v33H-1820z" fill="#fff"/><path d="M-1820-2508h279.5v33H-1820z" fill="#fff"/><path d="M-1820-2476h279.5v33H-1820z" fill="#fff"/><path d="M-1820-2444h279.5v33H-1820z" fill="#fff"/><path d="M-1820-2412h279.5v33H-1820z" fill="#fff"/><path d="M-1820-2380h279.5v22a10 10 0 0 1-10 10H-1810a10 10 0 0 1-10-10z" fill="#fff"/><path d="M-1819.5-2540h278.5-278.5zM-1820-2570a10 10 0 0 1 10-10h259.5a10 10 0 0 1 10 10v212a10 10 0 0 1-10 10H-1810a10 10 0 0 1-10-10zM-1760-2539.5v191z" stroke="#333" fill="none"/><use xlink:href="#a" transform="matrix(1,0,0,1,-1810,-2580) translate(109.05 23.6)"/><use xlink:href="#b" transform="matrix(1,0,0,1,-1815,-2537.5) translate(13 17.1)"/><use xlink:href="#c" transform="matrix(1,0,0,1,-1755,-2537.5) translate(0 17.1)"/><use xlink:href="#d" transform="matrix(1,0,0,1,-1815,-2505.5) translate(12.049999999999999 17.1)"/><use xlink:href="#e" transform="matrix(1,0,0,1,-1755,-2505.5) translate(0 17.1)"/><use xlink:href="#d" transform="matrix(1,0,0,1,-1815,-2473.5) translate(12.049999999999999 17.1)"/><use xlink:href="#f" transform="matrix(1,0,0,1,-1755,-2473.5) translate(0 17.1)"/><use xlink:href="#d" transform="matrix(1,0,0,1,-1815,-2441.5) translate(12.049999999999999 17.1)"/><use xlink:href="#g" transform="matrix(1,0,0,1,-1755,-2441.5) translate(0 17.1)"/><use xlink:href="#d" transform="matrix(1,0,0,1,-1815,-2409.5) translate(12.049999999999999 17.1)"/><use xlink:href="#h" transform="matrix(1,0,0,1,-1755,-2409.5) translate(0 17.1)"/><use xlink:href="#d" transform="matrix(1,0,0,1,-1815,-2377.5) translate(12.049999999999999 17.1)"/><use xlink:href="#i" transform="matrix(1,0,0,1,-1755,-2377.5) translate(0 17.1)"/><path d="M-1360-2610a10 10 0 0 1 10-10h259.5a10 10 0 0 1 10 10v276a10 10 0 0 1-10 10H-1350a10 10 0 0 1-10-10z" fill="#fff"/><path d="M-1360-2610a10 10 0 0 1 10-10h259.5a10 10 0 0 1 10 10v30H-1360z" fill="#ccc"/><path d="M-1360-2580h279.5v33H-1360z" fill="#fff"/><path d="M-1360-2548h279.5v33H-1360z" fill="#fff"/><path d="M-1360-2516h279.5v33H-1360z" fill="#fff"/><path d="M-1360-2484h279.5v33H-1360z" fill="#fff"/><path d="M-1360-2452h279.5v33H-1360z" fill="#fff"/><path d="M-1360-2420h279.5v33H-1360z" fill="#fff"/><path d="M-1360-2388h279.5v33H-1360z" fill="#fff"/><path d="M-1360-2356h279.5v22a10 10 0 0 1-10 10H-1350a10 10 0 0 1-10-10z" fill="#fff"/><path d="M-1359.5-2580h278.5-278.5zM-1360-2610a10 10 0 0 1 10-10h259.5a10 10 0 0 1 10 10v276a10 10 0 0 1-10 10H-1350a10 10 0 0 1-10-10zM-1300-2579.5v255z" stroke="#333" fill="none"/><use xlink:href="#j" transform="matrix(1,0,0,1,-1350,-2620) translate(85.57499999999999 23.6)"/><use xlink:href="#b" transform="matrix(1,0,0,1,-1355,-2577.5) translate(13 17.1)"/><use xlink:href="#c" transform="matrix(1,0,0,1,-1295,-2577.5) translate(0 17.1)"/><use xlink:href="#k" transform="matrix(1,0,0,1,-1355,-2545.5) translate(13.524999999999999 17.1)"/><use xlink:href="#l" transform="matrix(1,0,0,1,-1295,-2545.5) translate(0 17.1)"/><use xlink:href="#k" transform="matrix(1,0,0,1,-1355,-2513.5) translate(13.524999999999999 17.1)"/><use xlink:href="#m" transform="matrix(1,0,0,1,-1295,-2513.5) translate(0 17.1)"/><use xlink:href="#d" transform="matrix(1,0,0,1,-1355,-2481.5) translate(12.049999999999999 17.1)"/><use xlink:href="#n" transform="matrix(1,0,0,1,-1295,-2481.5) translate(0 17.1)"/><use xlink:href="#d" transform="matrix(1,0,0,1,-1355,-2449.5) translate(12.049999999999999 17.1)"/><use xlink:href="#o" transform="matrix(1,0,0,1,-1295,-2449.5) translate(0 17.1)"/><use xlink:href="#d" transform="matrix(1,0,0,1,-1355,-2417.5) translate(12.049999999999999 17.1)"/><use xlink:href="#p" transform="matrix(1,0,0,1,-1295,-2417.5) translate(0 17.1)"/><use xlink:href="#d" transform="matrix(1,0,0,1,-1355,-2385.5) translate(12.049999999999999 17.1)"/><use xlink:href="#q" transform="matrix(1,0,0,1,-1295,-2385.5) translate(0 17.1)"/><use xlink:href="#d" transform="matrix(1,0,0,1,-1355,-2353.5) translate(12.049999999999999 17.1)"/><use xlink:href="#r" transform="matrix(1,0,0,1,-1295,-2353.5) translate(0 17.1)"/><path d="M-1340-2270a10 10 0 0 1 10-10h259.5a10 10 0 0 1 10 10v180a10 10 0 0 1-10 10H-1330a10 10 0 0 1-10-10z" fill="#fff"/><path d="M-1340-2270a10 10 0 0 1 10-10h259.5a10 10 0 0 1 10 10v30H-1340z" fill="#ccc"/><path d="M-1340-2240h279.5v33H-1340z" fill="#fff"/><path d="M-1340-2208h279.5v33H-1340z" fill="#fff"/><path d="M-1340-2176h279.5v33H-1340z" fill="#fff"/><path d="M-1340-2144h279.5v33H-1340z" fill="#fff"/><path d="M-1340-2112h279.5v22a10 10 0 0 1-10 10H-1330a10 10 0 0 1-10-10z" fill="#fff"/><path d="M-1339.5-2240h278.5-278.5zM-1340-2270a10 10 0 0 1 10-10h259.5a10 10 0 0 1 10 10v180a10 10 0 0 1-10 10H-1330a10 10 0 0 1-10-10zM-1280-2239.5v159z" stroke="#333" fill="none"/><use xlink:href="#s" transform="matrix(1,0,0,1,-1330,-2280) translate(65.07499999999999 23.6)"/><use xlink:href="#b" transform="matrix(1,0,0,1,-1335,-2237.5) translate(13 17.1)"/><use xlink:href="#c" transform="matrix(1,0,0,1,-1275,-2237.5) translate(0 17.1)"/><use xlink:href="#d" transform="matrix(1,0,0,1,-1335,-2205.5) translate(12.049999999999999 17.1)"/><use xlink:href="#t" transform="matrix(1,0,0,1,-1275,-2205.5) translate(0 17.1)"/><use xlink:href="#d" transform="matrix(1,0,0,1,-1335,-2173.5) translate(12.049999999999999 17.1)"/><use xlink:href="#u" transform="matrix(1,0,0,1,-1275,-2173.5) translate(0 17.1)"/><use xlink:href="#d" transform="matrix(1,0,0,1,-1335,-2141.5) translate(12.049999999999999 17.1)"/><use xlink:href="#v" transform="matrix(1,0,0,1,-1275,-2141.5) translate(0 17.1)"/><use xlink:href="#d" transform="matrix(1,0,0,1,-1335,-2109.5) translate(12.049999999999999 17.1)"/><use xlink:href="#w" transform="matrix(1,0,0,1,-1275,-2109.5) translate(0 17.1)"/><path d="M-1940-2270a10 10 0 0 1 10-10h259.5a10 10 0 0 1 10 10v180a10 10 0 0 1-10 10H-1930a10 10 0 0 1-10-10z" fill="#fff"/><path d="M-1940-2270a10 10 0 0 1 10-10h259.5a10 10 0 0 1 10 10v30H-1940z" fill="#ccc"/><path d="M-1940-2240h279.5v33H-1940z" fill="#fff"/><path d="M-1940-2208h279.5v33H-1940z" fill="#fff"/><path d="M-1940-2176h279.5v33H-1940z" fill="#fff"/><path d="M-1940-2144h279.5v33H-1940z" fill="#fff"/><path d="M-1940-2112h279.5v22a10 10 0 0 1-10 10H-1930a10 10 0 0 1-10-10z" fill="#fff"/><path d="M-1939.5-2240h278.5-278.5zM-1940-2270a10 10 0 0 1 10-10h259.5a10 10 0 0 1 10 10v180a10 10 0 0 1-10 10H-1930a10 10 0 0 1-10-10zM-1880-2239.5v159z" stroke="#333" fill="none"/><use xlink:href="#x" transform="matrix(1,0,0,1,-1930,-2280) translate(86.625 23.6)"/><use xlink:href="#b" transform="matrix(1,0,0,1,-1935,-2237.5) translate(13 17.1)"/><use xlink:href="#c" transform="matrix(1,0,0,1,-1875,-2237.5) translate(0 17.1)"/><use xlink:href="#d" transform="matrix(1,0,0,1,-1935,-2205.5) translate(12.049999999999999 17.1)"/><use xlink:href="#y" transform="matrix(1,0,0,1,-1875,-2205.5) translate(0 17.1)"/><use xlink:href="#d" transform="matrix(1,0,0,1,-1935,-2173.5) translate(12.049999999999999 17.1)"/><use xlink:href="#n" transform="matrix(1,0,0,1,-1875,-2173.5) translate(0 17.1)"/><use xlink:href="#d" transform="matrix(1,0,0,1,-1935,-2141.5) translate(12.049999999999999 17.1)"/><use xlink:href="#o" transform="matrix(1,0,0,1,-1875,-2141.5) translate(0 17.1)"/><use xlink:href="#d" transform="matrix(1,0,0,1,-1935,-2109.5) translate(12.049999999999999 17.1)"/><use xlink:href="#z" transform="matrix(1,0,0,1,-1875,-2109.5) translate(0 17.1)"/><path d="M-1840.5-2524h-134a6 6 0 0 0-6 6v320a6 6 0 0 0 6 6h15.18M-1820.5-2524h-20m0-10v20M-1940.95-2192h-20m20-10l-20 10m20 10l-20-10M-1520-2524h65.75a4 4 0 0 0 4-4 4 4 0 0 1 4-4h66.93M-1540-2524h20m0 10v-20M-1360.95-2532h-20m20-10l-20 10m20 10l-20-10M-1040-2224h14a6 6 0 0 0 6-6v-264a6 6 0 0 0-6-6h-35.18M-1060-2224h20m0 10v-20M-1079.55-2500h20m-20 10l20-10m-20-10l20 10" stroke="#5e5e5e" stroke-width="2" fill="none"/><path d="M-1640-2090a10 10 0 0 1 10-10h259.5a10 10 0 0 1 10 10v148a10 10 0 0 1-10 10H-1630a10 10 0 0 1-10-10z" fill="#fff"/><path d="M-1640-2090a10 10 0 0 1 10-10h259.5a10 10 0 0 1 10 10v30H-1640z" fill="#ccc"/><path d="M-1640-2060h279.5v33H-1640z" fill="#fff"/><path d="M-1640-2028h279.5v33H-1640z" fill="#fff"/><path d="M-1640-1996h279.5v33H-1640z" fill="#fff"/><path d="M-1640-1964h279.5v22a10 10 0 0 1-10 10H-1630a10 10 0 0 1-10-10z" fill="#fff"/><path d="M-1639.5-2060h278.5-278.5zM-1640-2090a10 10 0 0 1 10-10h259.5a10 10 0 0 1 10 10v148a10 10 0 0 1-10 10H-1630a10 10 0 0 1-10-10zM-1580-2059.5v127z" stroke="#333" fill="none"/><use xlink:href="#A" transform="matrix(1,0,0,1,-1630,-2100) translate(48.575 23.6)"/><use xlink:href="#b" transform="matrix(1,0,0,1,-1635,-2057.5) translate(13 17.1)"/><use xlink:href="#c" transform="matrix(1,0,0,1,-1575,-2057.5) translate(0 17.1)"/><use xlink:href="#d" transform="matrix(1,0,0,1,-1635,-2025.5) translate(12.049999999999999 17.1)"/><use xlink:href="#B" transform="matrix(1,0,0,1,-1575,-2025.5) translate(0 17.1)"/><use xlink:href="#d" transform="matrix(1,0,0,1,-1635,-1993.5) translate(12.049999999999999 17.1)"/><use xlink:href="#C" transform="matrix(1,0,0,1,-1575,-1993.5) translate(0 17.1)"/><use xlink:href="#d" transform="matrix(1,0,0,1,-1635,-1961.5) translate(12.049999999999999 17.1)"/><use xlink:href="#D" transform="matrix(1,0,0,1,-1575,-1961.5) translate(0 17.1)"/><defs><path fill="#333" d="M44-68c0 29 11 47 38 47 30 0 42-19 51-41l28 9C148-21 126 4 82 4 31 4 10-29 12-85c3-77 74-140 146-93 12 8 15 23 18 40l-31 5c-1-22-13-36-36-36-52 0-65 49-65 101" id="E"/><path fill="#333" d="M6 0l50-261h32L37 0H6" id="F"/><path fill="#333" d="M50-231l6-30h32l-6 30H50zM6 0l37-190h31L37 0H6" id="G"/><path fill="#333" d="M111-194c62-3 86 47 72 106H45c-7 38 6 69 45 68 27-1 43-14 53-32l24 11C152-15 129 4 87 4 38 3 12-23 12-71c0-70 32-119 99-123zm44 81c14-66-71-72-95-28-4 8-8 17-11 28h106" id="H"/><path fill="#333" d="M67-158c22-48 132-52 116 29L158 0h-32l25-140c3-38-53-32-70-12C52-117 51-52 38 0H6l36-190h30" id="I"/><path fill="#333" d="M51-54c-9 22 5 41 31 30L79-1C43 14 10-4 19-52l22-115H19l5-23h22l19-43h21l-9 43h35l-4 23H73" id="J"/><g id="a"><use transform="matrix(0.05,0,0,0.05,0,0)" xlink:href="#E"/><use transform="matrix(0.05,0,0,0.05,9,0)" xlink:href="#F"/><use transform="matrix(0.05,0,0,0.05,12.949999999999998,0)" xlink:href="#G"/><use transform="matrix(0.05,0,0,0.05,16.9,0)" xlink:href="#H"/><use transform="matrix(0.05,0,0,0.05,26.899999999999995,0)" xlink:href="#I"/><use transform="matrix(0.05,0,0,0.05,36.9,0)" xlink:href="#J"/></g><path d="M30-248c87 1 191-15 191 75 0 78-77 80-158 76V0H30v-248zm33 125c57 0 124 11 124-50 0-59-68-47-124-48v98" id="K"/><path d="M194 0L95-120 63-95V0H30v-248h33v124l119-124h40L117-140 236 0h-42" id="L"/><g id="b"><use transform="matrix(0.05,0,0,0.05,0,0)" xlink:href="#K"/><use transform="matrix(0.05,0,0,0.05,12,0)" xlink:href="#L"/></g><path fill="#333" d="M133-28C103 26-5 8 13-77c13-62 24-115 90-117 29-1 46 15 56 35l19-102h32L160 0h-30zM45-64c-2 27 10 43 35 43 54-1 69-50 69-103 0-29-15-46-42-46-53-1-58 58-62 106" id="M"/><g id="c"><use transform="matrix(0.05,0,0,0.05,0,0)" xlink:href="#G"/><use transform="matrix(0.05,0,0,0.05,3.95,0)" xlink:href="#M"/></g><path d="M190 0L58-211 59 0H30v-248h39L202-35l-2-213h31V0h-41" id="N"/><g id="d"><use transform="matrix(0.05,0,0,0.05,0,0)" xlink:href="#N"/><use transform="matrix(0.05,0,0,0.05,12.950000000000001,0)" xlink:href="#N"/></g><path fill="#333" d="M165-48c-4 18 1 34 23 27l-3 20c-29 8-62 0-52-35h-2C116-14 99 4 63 4 30 4 8-16 8-49c0-68 71-67 138-67 10-26 0-56-31-54-26 1-42 9-47 31l-32-5c8-67 160-71 144 15-5 28-9 54-15 81zM42-50c3 52 80 24 89-6 7-12 7-24 11-38-47 1-103-4-100 44" id="O"/><path fill="#333" d="M248-111c6-24 9-61-24-58-72 9-57 108-77 169h-31l26-142c3-37-50-30-64-10C52-115 50-51 37 0H6l36-190h30c-1 10-6 24-4 32 13-43 101-52 105 5 13-22 29-41 61-41 90 0 28 129 23 194h-31" id="P"/><g id="e"><use transform="matrix(0.05,0,0,0.05,0,0)" xlink:href="#I"/><use transform="matrix(0.05,0,0,0.05,10,0)" xlink:href="#O"/><use transform="matrix(0.05,0,0,0.05,20,0)" xlink:href="#P"/><use transform="matrix(0.05,0,0,0.05,34.95,0)" xlink:href="#H"/></g><path fill="#333" d="M67-162c32-53 139-36 121 50C175-51 163 2 97 4 68 4 52-11 42-31 38 6 28 39 22 75H-9l50-265h29c-1 10 0 20-3 28zm89 36c0-26-10-43-35-43-54 0-67 50-69 103-1 29 14 45 42 46 53 0 62-58 62-106" id="Q"/><path fill="#333" d="M67-158c15-20 31-36 64-36 94 0 33 127 27 194h-32l25-140c3-38-53-32-70-12C52-117 51-51 37 0H6l51-261h31" id="R"/><path fill="#333" d="M30-147c31-64 166-65 159 27C183-49 158 1 86 4 9 8 1-88 30-147zM88-20c53 0 68-48 68-100 0-31-11-51-44-50-52 1-68 46-68 97 0 32 13 53 44 53" id="S"/><g id="f"><use transform="matrix(0.05,0,0,0.05,0,0)" xlink:href="#Q"/><use transform="matrix(0.05,0,0,0.05,10,0)" xlink:href="#R"/><use transform="matrix(0.05,0,0,0.05,20,0)" xlink:href="#S"/><use transform="matrix(0.05,0,0,0.05,30,0)" xlink:href="#I"/><use transform="matrix(0.05,0,0,0.05,40,0)" xlink:href="#H"/></g><path fill="#333" d="M89 0H52L20-190h33L74-25l89-165h34" id="T"/><g id="g"><use transform="matrix(0.05,0,0,0.05,0,0)" xlink:href="#T"/><use transform="matrix(0.05,0,0,0.05,9,0)" xlink:href="#G"/><use transform="matrix(0.05,0,0,0.05,12.949999999999998,0)" xlink:href="#Q"/></g><path fill="#333" d="M55-144c13 50 104 24 104 88C159 21 15 23 1-39l26-10c6 40 102 42 102-4-13-50-104-23-104-87 0-71 143-71 148-8l-29 4c-5-35-85-37-89 0" id="U"/><g id="h"><use transform="matrix(0.05,0,0,0.05,0,0)" xlink:href="#Q"/><use transform="matrix(0.05,0,0,0.05,10,0)" xlink:href="#S"/><use transform="matrix(0.05,0,0,0.05,20,0)" xlink:href="#G"/><use transform="matrix(0.05,0,0,0.05,23.95,0)" xlink:href="#I"/><use transform="matrix(0.05,0,0,0.05,33.95,0)" xlink:href="#J"/><use transform="matrix(0.05,0,0,0.05,38.95,0)" xlink:href="#U"/></g><path fill="#333" d="M198-190L69 30C53 58 25 83-20 72c4-11-1-27 19-22 33-1 43-29 59-52L20-190h32L79-34l84-156h35" id="V"/><path fill="#333" d="M-28 44V31h207v13H-28" id="W"/><g id="i"><use transform="matrix(0.05,0,0,0.05,0,0)" xlink:href="#F"/><use transform="matrix(0.05,0,0,0.05,3.95,0)" xlink:href="#S"/><use transform="matrix(0.05,0,0,0.05,13.949999999999998,0)" xlink:href="#V"/><use transform="matrix(0.05,0,0,0.05,22.95,0)" xlink:href="#O"/><use transform="matrix(0.05,0,0,0.05,32.95,0)" xlink:href="#F"/><use transform="matrix(0.05,0,0,0.05,36.900000000000006,0)" xlink:href="#J"/><use transform="matrix(0.05,0,0,0.05,41.900000000000006,0)" xlink:href="#V"/><use transform="matrix(0.05,0,0,0.05,50.900000000000006,0)" xlink:href="#W"/><use transform="matrix(0.05,0,0,0.05,60.900000000000006,0)" xlink:href="#F"/><use transform="matrix(0.05,0,0,0.05,64.85000000000001,0)" xlink:href="#H"/><use transform="matrix(0.05,0,0,0.05,74.85000000000001,0)" xlink:href="#T"/><use transform="matrix(0.05,0,0,0.05,83.85000000000001,0)" xlink:href="#H"/><use transform="matrix(0.05,0,0,0.05,93.85000000000001,0)" xlink:href="#F"/></g><path fill="#333" d="M66-151c12-25 30-51 66-40l-6 26C45-176 58-65 38 0H6l36-190h30" id="X"/><g id="j"><use transform="matrix(0.05,0,0,0.05,0,0)" xlink:href="#X"/><use transform="matrix(0.05,0,0,0.05,5.95,0)" xlink:href="#H"/><use transform="matrix(0.05,0,0,0.05,15.949999999999998,0)" xlink:href="#U"/><use transform="matrix(0.05,0,0,0.05,24.95,0)" xlink:href="#H"/><use transform="matrix(0.05,0,0,0.05,34.95,0)" xlink:href="#X"/><use transform="matrix(0.05,0,0,0.05,40.900000000000006,0)" xlink:href="#T"/><use transform="matrix(0.05,0,0,0.05,49.900000000000006,0)" xlink:href="#O"/><use transform="matrix(0.05,0,0,0.05,59.900000000000006,0)" xlink:href="#J"/><use transform="matrix(0.05,0,0,0.05,64.9,0)" xlink:href="#G"/><use transform="matrix(0.05,0,0,0.05,68.85000000000001,0)" xlink:href="#S"/><use transform="matrix(0.05,0,0,0.05,78.85000000000001,0)" xlink:href="#I"/></g><path d="M63-220v92h138v28H63V0H30v-248h175v28H63" id="Y"/><g id="k"><use transform="matrix(0.05,0,0,0.05,0,0)" xlink:href="#Y"/><use transform="matrix(0.05,0,0,0.05,10.950000000000001,0)" xlink:href="#L"/></g><g id="l"><use transform="matrix(0.05,0,0,0.05,0,0)" xlink:href="#E"/><use transform="matrix(0.05,0,0,0.05,9,0)" xlink:href="#F"/><use transform="matrix(0.05,0,0,0.05,12.949999999999998,0)" xlink:href="#G"/><use transform="matrix(0.05,0,0,0.05,16.9,0)" xlink:href="#H"/><use transform="matrix(0.05,0,0,0.05,26.899999999999995,0)" xlink:href="#I"/><use transform="matrix(0.05,0,0,0.05,36.9,0)" xlink:href="#J"/><use transform="matrix(0.05,0,0,0.05,41.9,0)" xlink:href="#H"/><use transform="matrix(0.05,0,0,0.05,51.900000000000006,0)" xlink:href="#W"/><use transform="matrix(0.05,0,0,0.05,61.900000000000006,0)" xlink:href="#G"/><use transform="matrix(0.05,0,0,0.05,65.85,0)" xlink:href="#M"/></g><path fill="#333" d="M68-162c25-46 127-43 121 31C183-60 169 1 98 4 69 5 53-11 43-31L36 0H5l52-261h31zm88 36c2-27-9-43-34-43-55 0-70 51-70 103 0 29 15 45 43 46 52 0 58-58 61-106" id="Z"/><g id="m"><use transform="matrix(0.05,0,0,0.05,0,0)" xlink:href="#J"/><use transform="matrix(0.05,0,0,0.05,5,0)" xlink:href="#O"/><use transform="matrix(0.05,0,0,0.05,15,0)" xlink:href="#Z"/><use transform="matrix(0.05,0,0,0.05,25,0)" xlink:href="#F"/><use transform="matrix(0.05,0,0,0.05,28.950000000000003,0)" xlink:href="#H"/><use transform="matrix(0.05,0,0,0.05,38.95,0)" xlink:href="#W"/><use transform="matrix(0.05,0,0,0.05,48.95,0)" xlink:href="#G"/><use transform="matrix(0.05,0,0,0.05,52.900000000000006,0)" xlink:href="#M"/></g><g id="n"><use transform="matrix(0.05,0,0,0.05,0,0)" xlink:href="#M"/><use transform="matrix(0.05,0,0,0.05,10,0)" xlink:href="#O"/><use transform="matrix(0.05,0,0,0.05,20,0)" xlink:href="#J"/><use transform="matrix(0.05,0,0,0.05,25,0)" xlink:href="#H"/><use transform="matrix(0.05,0,0,0.05,35,0)" xlink:href="#W"/><use transform="matrix(0.05,0,0,0.05,45,0)" xlink:href="#J"/><use transform="matrix(0.05,0,0,0.05,50,0)" xlink:href="#G"/><use transform="matrix(0.05,0,0,0.05,53.95,0)" xlink:href="#P"/><use transform="matrix(0.05,0,0,0.05,68.9,0)" xlink:href="#H"/></g><path fill="#333" d="M67 3c-93-2-31-127-26-193h32L48-50c-3 39 53 32 70 12 30-34 30-101 43-152h32L157 0h-30c1-10 6-24 4-33-14 20-29 37-64 36" id="aa"/><g id="o"><use transform="matrix(0.05,0,0,0.05,0,0)" xlink:href="#I"/><use transform="matrix(0.05,0,0,0.05,10,0)" xlink:href="#aa"/><use transform="matrix(0.05,0,0,0.05,20,0)" xlink:href="#P"/><use transform="matrix(0.05,0,0,0.05,34.95,0)" xlink:href="#W"/><use transform="matrix(0.05,0,0,0.05,44.95,0)" xlink:href="#Q"/><use transform="matrix(0.05,0,0,0.05,54.95,0)" xlink:href="#H"/><use transform="matrix(0.05,0,0,0.05,64.95,0)" xlink:href="#S"/><use transform="matrix(0.05,0,0,0.05,74.95,0)" xlink:href="#Q"/><use transform="matrix(0.05,0,0,0.05,84.95,0)" xlink:href="#F"/><use transform="matrix(0.05,0,0,0.05,88.9,0)" xlink:href="#H"/></g><g id="p"><use transform="matrix(0.05,0,0,0.05,0,0)" xlink:href="#U"/><use transform="matrix(0.05,0,0,0.05,9,0)" xlink:href="#J"/><use transform="matrix(0.05,0,0,0.05,14,0)" xlink:href="#O"/><use transform="matrix(0.05,0,0,0.05,24,0)" xlink:href="#J"/><use transform="matrix(0.05,0,0,0.05,29,0)" xlink:href="#aa"/><use transform="matrix(0.05,0,0,0.05,39,0)" xlink:href="#U"/></g><g id="q"><use transform="matrix(0.05,0,0,0.05,0,0)" xlink:href="#H"/><use transform="matrix(0.05,0,0,0.05,10,0)" xlink:href="#I"/><use transform="matrix(0.05,0,0,0.05,20,0)" xlink:href="#M"/><use transform="matrix(0.05,0,0,0.05,30,0)" xlink:href="#W"/><use transform="matrix(0.05,0,0,0.05,40,0)" xlink:href="#J"/><use transform="matrix(0.05,0,0,0.05,45,0)" xlink:href="#G"/><use transform="matrix(0.05,0,0,0.05,48.95,0)" xlink:href="#P"/><use transform="matrix(0.05,0,0,0.05,63.900000000000006,0)" xlink:href="#H"/></g><path fill="#333" d="M76-167L44 0H12l33-167H18l4-23h27c3-47 25-81 82-69l-4 24c-35-8-44 15-46 45h37l-5 23H76" id="ab"/><g id="r"><use transform="matrix(0.05,0,0,0.05,0,0)" xlink:href="#E"/><use transform="matrix(0.05,0,0,0.05,9,0)" xlink:href="#S"/><use transform="matrix(0.05,0,0,0.05,19,0)" xlink:href="#I"/><use transform="matrix(0.05,0,0,0.05,29,0)" xlink:href="#ab"/><use transform="matrix(0.05,0,0,0.05,34,0)" xlink:href="#G"/><use transform="matrix(0.05,0,0,0.05,37.95,0)" xlink:href="#X"/><use transform="matrix(0.05,0,0,0.05,43.900000000000006,0)" xlink:href="#P"/><use transform="matrix(0.05,0,0,0.05,58.85,0)" xlink:href="#H"/><use transform="matrix(0.05,0,0,0.05,68.85000000000001,0)" xlink:href="#M"/><use transform="matrix(0.05,0,0,0.05,78.85000000000001,0)" xlink:href="#W"/><use transform="matrix(0.05,0,0,0.05,88.85000000000001,0)" xlink:href="#O"/><use transform="matrix(0.05,0,0,0.05,98.85000000000001,0)" xlink:href="#J"/></g><g id="s"><use transform="matrix(0.05,0,0,0.05,0,0)" xlink:href="#X"/><use transform="matrix(0.05,0,0,0.05,5.95,0)" xlink:href="#H"/><use transform="matrix(0.05,0,0,0.05,15.949999999999998,0)" xlink:href="#U"/><use transform="matrix(0.05,0,0,0.05,24.95,0)" xlink:href="#J"/><use transform="matrix(0.05,0,0,0.05,29.950000000000003,0)" xlink:href="#O"/><use transform="matrix(0.05,0,0,0.05,39.95,0)" xlink:href="#aa"/><use transform="matrix(0.05,0,0,0.05,49.95,0)" xlink:href="#X"/><use transform="matrix(0.05,0,0,0.05,55.900000000000006,0)" xlink:href="#O"/><use transform="matrix(0.05,0,0,0.05,65.9,0)" xlink:href="#I"/><use transform="matrix(0.05,0,0,0.05,75.9,0)" xlink:href="#J"/><use transform="matrix(0.05,0,0,0.05,80.9,0)" xlink:href="#W"/><use transform="matrix(0.05,0,0,0.05,90.9,0)" xlink:href="#J"/><use transform="matrix(0.05,0,0,0.05,95.9,0)" xlink:href="#O"/><use transform="matrix(0.05,0,0,0.05,105.9,0)" xlink:href="#Z"/><use transform="matrix(0.05,0,0,0.05,115.9,0)" xlink:href="#F"/><use transform="matrix(0.05,0,0,0.05,119.85000000000001,0)" xlink:href="#H"/></g><g id="t"><use transform="matrix(0.05,0,0,0.05,0,0)" xlink:href="#I"/><use transform="matrix(0.05,0,0,0.05,10,0)" xlink:href="#aa"/><use transform="matrix(0.05,0,0,0.05,20,0)" xlink:href="#P"/><use transform="matrix(0.05,0,0,0.05,34.95,0)" xlink:href="#W"/><use transform="matrix(0.05,0,0,0.05,44.95,0)" xlink:href="#J"/><use transform="matrix(0.05,0,0,0.05,49.95,0)" xlink:href="#O"/><use transform="matrix(0.05,0,0,0.05,59.95,0)" xlink:href="#Z"/><use transform="matrix(0.05,0,0,0.05,69.95,0)" xlink:href="#F"/><use transform="matrix(0.05,0,0,0.05,73.9,0)" xlink:href="#H"/></g><g id="u"><use transform="matrix(0.05,0,0,0.05,0,0)" xlink:href="#E"/><use transform="matrix(0.05,0,0,0.05,9,0)" xlink:href="#O"/><use transform="matrix(0.05,0,0,0.05,19,0)" xlink:href="#Q"/><use transform="matrix(0.05,0,0,0.05,29,0)" xlink:href="#O"/><use transform="matrix(0.05,0,0,0.05,39,0)" xlink:href="#E"/><use transform="matrix(0.05,0,0,0.05,48,0)" xlink:href="#G"/><use transform="matrix(0.05,0,0,0.05,51.95,0)" xlink:href="#J"/><use transform="matrix(0.05,0,0,0.05,56.95,0)" xlink:href="#V"/></g><g id="v"><use transform="matrix(0.05,0,0,0.05,0,0)" xlink:href="#J"/><use transform="matrix(0.05,0,0,0.05,5,0)" xlink:href="#O"/><use transform="matrix(0.05,0,0,0.05,15,0)" xlink:href="#Z"/><use transform="matrix(0.05,0,0,0.05,25,0)" xlink:href="#F"/><use transform="matrix(0.05,0,0,0.05,28.950000000000003,0)" xlink:href="#H"/><use transform="matrix(0.05,0,0,0.05,38.95,0)" xlink:href="#W"/><use transform="matrix(0.05,0,0,0.05,48.95,0)" xlink:href="#U"/><use transform="matrix(0.05,0,0,0.05,57.95,0)" xlink:href="#J"/><use transform="matrix(0.05,0,0,0.05,62.95,0)" xlink:href="#O"/><use transform="matrix(0.05,0,0,0.05,72.95,0)" xlink:href="#J"/><use transform="matrix(0.05,0,0,0.05,77.95,0)" xlink:href="#aa"/><use transform="matrix(0.05,0,0,0.05,87.95,0)" xlink:href="#U"/></g><path fill="#333" d="M124 0L87-78 21 0h-35l86-98-46-92h33l34 74 61-74h37l-83 92 50 98h-34" id="ac"/><g id="w"><use transform="matrix(0.05,0,0,0.05,0,0)" xlink:href="#T"/><use transform="matrix(0.05,0,0,0.05,9,0)" xlink:href="#G"/><use transform="matrix(0.05,0,0,0.05,12.949999999999998,0)" xlink:href="#Q"/><use transform="matrix(0.05,0,0,0.05,22.95,0)" xlink:href="#W"/><use transform="matrix(0.05,0,0,0.05,32.95,0)" xlink:href="#H"/><use transform="matrix(0.05,0,0,0.05,42.95,0)" xlink:href="#ac"/><use transform="matrix(0.05,0,0,0.05,51.95,0)" xlink:href="#E"/><use transform="matrix(0.05,0,0,0.05,60.95,0)" xlink:href="#F"/><use transform="matrix(0.05,0,0,0.05,64.9,0)" xlink:href="#aa"/><use transform="matrix(0.05,0,0,0.05,74.9,0)" xlink:href="#U"/><use transform="matrix(0.05,0,0,0.05,83.9,0)" xlink:href="#G"/><use transform="matrix(0.05,0,0,0.05,87.85000000000001,0)" xlink:href="#T"/><use transform="matrix(0.05,0,0,0.05,96.85000000000001,0)" xlink:href="#H"/></g><path fill="#333" d="M188 0h-37l-8-164L71 0H34L18-190h31l8 164 75-164h34l8 164 74-164h31" id="ad"/><g id="x"><use transform="matrix(0.05,0,0,0.05,0,0)" xlink:href="#T"/><use transform="matrix(0.05,0,0,0.05,9,0)" xlink:href="#G"/><use transform="matrix(0.05,0,0,0.05,12.949999999999998,0)" xlink:href="#Q"/><use transform="matrix(0.05,0,0,0.05,22.95,0)" xlink:href="#W"/><use transform="matrix(0.05,0,0,0.05,32.95,0)" xlink:href="#ad"/><use transform="matrix(0.05,0,0,0.05,45.900000000000006,0)" xlink:href="#O"/><use transform="matrix(0.05,0,0,0.05,55.900000000000006,0)" xlink:href="#G"/><use transform="matrix(0.05,0,0,0.05,59.85,0)" xlink:href="#J"/><use transform="matrix(0.05,0,0,0.05,64.85000000000001,0)" xlink:href="#F"/><use transform="matrix(0.05,0,0,0.05,68.80000000000001,0)" xlink:href="#G"/><use transform="matrix(0.05,0,0,0.05,72.75000000000001,0)" xlink:href="#U"/><use transform="matrix(0.05,0,0,0.05,81.75000000000001,0)" xlink:href="#J"/></g><g id="y"><use transform="matrix(0.05,0,0,0.05,0,0)" xlink:href="#E"/><use transform="matrix(0.05,0,0,0.05,9,0)" xlink:href="#F"/><use transform="matrix(0.05,0,0,0.05,12.949999999999998,0)" xlink:href="#G"/><use transform="matrix(0.05,0,0,0.05,16.9,0)" xlink:href="#H"/><use transform="matrix(0.05,0,0,0.05,26.899999999999995,0)" xlink:href="#I"/><use transform="matrix(0.05,0,0,0.05,36.9,0)" xlink:href="#J"/><use transform="matrix(0.05,0,0,0.05,41.9,0)" xlink:href="#W"/><use transform="matrix(0.05,0,0,0.05,51.900000000000006,0)" xlink:href="#G"/><use transform="matrix(0.05,0,0,0.05,55.85,0)" xlink:href="#M"/></g><g id="z"><use transform="matrix(0.05,0,0,0.05,0,0)" xlink:href="#F"/><use transform="matrix(0.05,0,0,0.05,3.95,0)" xlink:href="#G"/><use transform="matrix(0.05,0,0,0.05,7.9,0)" xlink:href="#U"/><use transform="matrix(0.05,0,0,0.05,16.9,0)" xlink:href="#J"/><use transform="matrix(0.05,0,0,0.05,21.9,0)" xlink:href="#W"/><use transform="matrix(0.05,0,0,0.05,31.899999999999995,0)" xlink:href="#U"/><use transform="matrix(0.05,0,0,0.05,40.9,0)" xlink:href="#J"/><use transform="matrix(0.05,0,0,0.05,45.9,0)" xlink:href="#O"/><use transform="matrix(0.05,0,0,0.05,55.900000000000006,0)" xlink:href="#J"/><use transform="matrix(0.05,0,0,0.05,60.900000000000006,0)" xlink:href="#aa"/><use transform="matrix(0.05,0,0,0.05,70.9,0)" xlink:href="#U"/></g><g id="A"><use transform="matrix(0.05,0,0,0.05,0,0)" xlink:href="#X"/><use transform="matrix(0.05,0,0,0.05,5.95,0)" xlink:href="#H"/><use transform="matrix(0.05,0,0,0.05,15.949999999999998,0)" xlink:href="#U"/><use transform="matrix(0.05,0,0,0.05,24.95,0)" xlink:href="#J"/><use transform="matrix(0.05,0,0,0.05,29.950000000000003,0)" xlink:href="#O"/><use transform="matrix(0.05,0,0,0.05,39.95,0)" xlink:href="#aa"/><use transform="matrix(0.05,0,0,0.05,49.95,0)" xlink:href="#X"/><use transform="matrix(0.05,0,0,0.05,55.900000000000006,0)" xlink:href="#O"/><use transform="matrix(0.05,0,0,0.05,65.9,0)" xlink:href="#I"/><use transform="matrix(0.05,0,0,0.05,75.9,0)" xlink:href="#J"/><use transform="matrix(0.05,0,0,0.05,80.9,0)" xlink:href="#W"/><use transform="matrix(0.05,0,0,0.05,90.9,0)" xlink:href="#U"/><use transform="matrix(0.05,0,0,0.05,99.9,0)" xlink:href="#E"/><use transform="matrix(0.05,0,0,0.05,108.9,0)" xlink:href="#R"/><use transform="matrix(0.05,0,0,0.05,118.9,0)" xlink:href="#H"/><use transform="matrix(0.05,0,0,0.05,128.9,0)" xlink:href="#M"/><use transform="matrix(0.05,0,0,0.05,138.9,0)" xlink:href="#aa"/><use transform="matrix(0.05,0,0,0.05,148.9,0)" xlink:href="#F"/><use transform="matrix(0.05,0,0,0.05,152.85,0)" xlink:href="#H"/></g><g id="B"><use transform="matrix(0.05,0,0,0.05,0,0)" xlink:href="#S"/><use transform="matrix(0.05,0,0,0.05,10,0)" xlink:href="#Q"/><use transform="matrix(0.05,0,0,0.05,20,0)" xlink:href="#H"/><use transform="matrix(0.05,0,0,0.05,30,0)" xlink:href="#I"/><use transform="matrix(0.05,0,0,0.05,40,0)" xlink:href="#W"/><use transform="matrix(0.05,0,0,0.05,50,0)" xlink:href="#J"/><use transform="matrix(0.05,0,0,0.05,55,0)" xlink:href="#G"/><use transform="matrix(0.05,0,0,0.05,58.95,0)" xlink:href="#P"/><use transform="matrix(0.05,0,0,0.05,73.9,0)" xlink:href="#H"/></g><g id="C"><use transform="matrix(0.05,0,0,0.05,0,0)" xlink:href="#E"/><use transform="matrix(0.05,0,0,0.05,9,0)" xlink:href="#F"/><use transform="matrix(0.05,0,0,0.05,12.949999999999998,0)" xlink:href="#S"/><use transform="matrix(0.05,0,0,0.05,22.95,0)" xlink:href="#U"/><use transform="matrix(0.05,0,0,0.05,31.950000000000003,0)" xlink:href="#H"/><use transform="matrix(0.05,0,0,0.05,41.95,0)" xlink:href="#W"/><use transform="matrix(0.05,0,0,0.05,51.95,0)" xlink:href="#J"/><use transform="matrix(0.05,0,0,0.05,56.95,0)" xlink:href="#G"/><use transform="matrix(0.05,0,0,0.05,60.900000000000006,0)" xlink:href="#P"/><use transform="matrix(0.05,0,0,0.05,75.85000000000001,0)" xlink:href="#H"/></g><path fill="#333" d="M127 0L80-88 50-66 37 0H6l51-261h31L57-100l99-90h39l-93 82L161 0h-34" id="ae"/><g id="D"><use transform="matrix(0.05,0,0,0.05,0,0)" xlink:href="#M"/><use transform="matrix(0.05,0,0,0.05,10,0)" xlink:href="#O"/><use transform="matrix(0.05,0,0,0.05,20,0)" xlink:href="#V"/><use transform="matrix(0.05,0,0,0.05,29,0)" xlink:href="#W"/><use transform="matrix(0.05,0,0,0.05,39,0)" xlink:href="#S"/><use transform="matrix(0.05,0,0,0.05,49,0)" xlink:href="#ab"/><use transform="matrix(0.05,0,0,0.05,54,0)" xlink:href="#W"/><use transform="matrix(0.05,0,0,0.05,64,0)" xlink:href="#ad"/><use transform="matrix(0.05,0,0,0.05,76.95,0)" xlink:href="#H"/><use transform="matrix(0.05,0,0,0.05,86.95,0)" xlink:href="#H"/><use transform="matrix(0.05,0,0,0.05,96.95,0)" xlink:href="#ae"/></g></defs></g></svg>